<svg width="26" height="26" viewBox="0 0 26 26" fill="none" xmlns="http://www.w3.org/2000/svg">
<path d="M21.0585 15.4022L13.7862 22.6745C13.6736 22.7875 13.5398 22.8772 13.3925 22.9383C13.2451 22.9995 13.0872 23.031 12.9277 23.031C12.7681 23.031 12.6102 22.9995 12.4628 22.9383C12.3155 22.8772 12.1817 22.7875 12.0691 22.6745L4.79678 15.4022C4.56908 15.1745 4.44116 14.8657 4.44116 14.5436C4.44116 14.2216 4.56908 13.9128 4.79678 13.6851C5.02448 13.4574 5.33331 13.3295 5.65532 13.3295C5.97733 13.3295 6.28616 13.4574 6.51386 13.6851L11.7166 18.8879V4.04018C11.7166 3.71872 11.8443 3.41043 12.0716 3.18313C12.2989 2.95582 12.6072 2.82813 12.9287 2.82812C13.2501 2.82812 13.5584 2.95582 13.7857 3.18313C14.013 3.41043 14.1407 3.71872 14.1407 4.04018V18.8879L19.3435 13.6841C19.5712 13.4564 19.88 13.3285 20.202 13.3285C20.524 13.3285 20.8328 13.4564 21.0605 13.6841C21.2882 13.9118 21.4162 14.2206 21.4162 14.5426C21.4162 14.8647 21.2882 15.1735 21.0605 15.4012L21.0585 15.4022Z" fill="#D4AF37"/>
</svg>
