<svg width="40" height="40" viewBox="0 0 40 40" fill="none" xmlns="http://www.w3.org/2000/svg">
<path fill-rule="evenodd" clip-rule="evenodd" d="M23.6306 39.9999C32.629 38.0589 39.2801 30.062 39.2801 20.59C39.2801 9.64276 30.3599 0.714185 19.2488 0.714185C10.0938 0.714185 2.26911 6.92537 -6.14441e-05 15.3881C0.23468 15.5434 0.469422 15.6987 0.782411 15.9316C3.44282 9.7204 9.7026 5.45021 16.9013 5.45021C26.6823 5.45021 34.5852 13.2918 34.5852 22.9192C34.5852 30.3726 29.8904 36.8167 23.2394 39.3011C23.3959 39.5341 23.4741 39.767 23.6306 39.9999ZM23.4741 16.4751C24.4913 19.2701 17.6056 27.4223 17.6056 27.4223C17.6056 27.4223 18.4663 29.1303 19.1705 30.7608C19.8747 32.4688 19.7965 33.4005 19.0923 34.0993C18.388 34.798 17.7621 34.4098 17.7621 34.4098L13.6932 30.3726C13.6932 30.3726 13.6932 30.3726 13.2237 30.8384C12.7542 31.3042 12.1283 31.0713 12.1283 31.0713L11.424 30.6831C11.424 30.6831 11.8153 32.857 9.5461 34.3322C7.58992 35.7297 4.92952 35.5744 4.22529 35.5744C4.22529 35.5744 4.22529 35.5744 4.14704 35.4968C4.14704 34.798 3.99055 32.1583 5.32075 30.2173C6.8857 27.9657 8.99837 28.3539 8.99837 28.3539L8.68538 27.6552C8.68538 27.6552 8.45064 27.0341 8.92013 26.5682C9.38961 26.1024 9.38961 26.1024 9.38961 26.1024L5.32075 22.0651C5.32075 22.0651 4.92952 21.444 5.63374 20.7452C6.33797 20.0465 7.27693 19.9688 8.99837 20.6676C10.6416 21.2887 12.363 22.2204 12.363 22.2204C12.363 22.2204 20.579 15.3881 23.3959 16.3974C23.3959 16.3974 23.3959 16.3974 23.4741 16.3974V16.4751Z" fill="#D4AF37"/>
<path fill-rule="evenodd" clip-rule="evenodd" d="M24.3505 39.2856C33.3489 37.3446 39.9999 29.3477 39.9999 19.8757C39.9999 8.92846 31.0797 -0.000109383 19.9686 -0.000109383C10.8137 -0.000109383 2.98896 6.21107 0.719787 14.6738C0.954529 14.8291 1.18927 14.9844 1.50226 15.2173C4.16267 9.0061 10.4224 4.73592 17.6212 4.73592C27.4021 4.73592 35.3051 12.5775 35.3051 22.2049C35.3051 29.6583 30.6102 36.1024 23.9592 38.5868C24.1157 38.8198 24.194 39.0527 24.3505 39.2856ZM24.194 15.7608C25.2112 18.5558 18.3254 26.708 18.3254 26.708C18.3254 26.708 19.1861 28.416 19.8904 30.0465C20.5946 31.7546 20.5163 32.6862 19.8121 33.385C19.1079 34.0837 18.4819 33.6955 18.4819 33.6955L14.4131 29.6583C14.4131 29.6583 14.4131 29.6583 13.9436 30.1241C13.4741 30.59 12.8481 30.357 12.8481 30.357L12.1439 29.9688C12.1439 29.9688 12.5351 32.1427 10.266 33.6179C8.30977 35.0154 5.64936 34.8601 4.94514 34.8601C4.94514 34.8601 4.94514 34.8601 4.86689 34.7825C4.86689 34.0837 4.7104 31.444 6.0406 29.503C7.60555 27.2514 9.71822 27.6396 9.71822 27.6396L9.40523 26.9409C9.40523 26.9409 9.17049 26.3198 9.63997 25.8539C10.1095 25.3881 10.1095 25.3881 10.1095 25.3881L6.0406 21.3508C6.0406 21.3508 5.64936 20.7297 6.35359 20.0309C7.05781 19.3322 7.99678 19.2546 9.71822 19.9533C11.3614 20.5744 13.0829 21.5061 13.0829 21.5061C13.0829 21.5061 21.2988 14.6738 24.1157 15.6831C24.1157 15.6831 24.1157 15.6831 24.194 15.6831V15.7608Z" fill="white"/>
</svg>
