<svg width="318" height="318" viewBox="0 0 318 318" fill="none" xmlns="http://www.w3.org/2000/svg">
<g clip-path="url(#clip0_780_1966)">
<path fill-rule="evenodd" clip-rule="evenodd" d="M66.1911 27.1575C48.1013 27.1575 34.7255 42.9893 35.3329 60.1415C35.9007 76.6467 35.1613 97.9978 29.7872 115.414C24.3735 132.87 15.2626 143.935 0.368286 145.361V161.404C15.2626 162.817 24.3867 173.882 29.774 191.351C35.1613 208.768 35.9007 230.119 35.3197 246.611C34.7255 263.776 48.1013 279.608 66.1911 279.608H251.472C269.562 279.608 282.937 263.776 282.33 246.611C281.762 230.119 282.502 208.768 287.876 191.351C293.276 173.882 302.374 162.83 317.268 161.404V145.361C302.374 143.935 293.276 132.87 287.876 115.414C282.502 97.9846 281.762 76.6335 282.33 60.1415C282.937 42.9761 269.548 27.1575 251.472 27.1575H66.1911ZM215.2 182.557C215.2 206.193 197.573 220.519 168.325 220.519H118.532C117.107 220.519 115.74 219.953 114.732 218.945C113.724 217.937 113.158 216.57 113.158 215.145V91.607C113.162 90.184 113.73 88.8205 114.737 87.8155C115.744 86.8105 117.109 86.2461 118.532 86.2461H168.048C192.436 86.2461 208.453 99.4503 208.453 119.745C208.453 133.979 197.678 146.721 183.959 148.966V149.705C202.643 151.752 215.2 164.692 215.2 182.557ZM162.912 103.266H134.523V143.381H158.435C176.921 143.381 187.115 135.933 187.115 122.624C187.115 110.159 178.347 103.266 162.912 103.266ZM134.523 159.292V203.486H163.968C183.206 203.486 193.413 195.761 193.413 181.25C193.413 166.726 182.929 159.292 162.727 159.292H134.523Z" fill="#D4AF37" fill-opacity="0.1"/>
</g>
<defs>
<clipPath id="clip0_780_1966">
<rect width="316.9" height="316.9" fill="white" transform="translate(0.368286 0.749146)"/>
</clipPath>
</defs>
</svg>
