<svg width="318" height="318" viewBox="0 0 318 318" fill="none" xmlns="http://www.w3.org/2000/svg">
<g clip-path="url(#clip0_780_1950)">
<path d="M99.4259 0.749146H133.466V14.9832H113.66V29.2173H133.466V43.4514H99.4259V0.749146ZM140.266 0.749146H174.32V13.1347H154.514V15.6038H174.32V44.072H140.266V31.0791H160.073V28.5967H140.266V0.749146ZM181.133 0.749146H215.16V13.1347H195.354V15.6038H215.16V44.072H181.133V31.0791H200.94V28.5967H181.133V0.749146Z" fill="#D4AF37" fill-opacity="0.1"/>
<path fill-rule="evenodd" clip-rule="evenodd" d="M158.699 317.649L67.0098 292.192L39.9808 63.0332H277.656L250.64 292.165L158.699 317.649ZM93.4181 166.765L95.9401 194.864H193.347L190.086 231.307L158.739 239.784H158.713L127.419 231.334L125.412 208.926H97.1945L101.129 253.054L158.699 269.031L216.362 253.054L223.387 174.305L224.073 166.765L229.144 109.868H88.3609L90.9225 137.98H198.352L195.79 166.765H93.4181Z" fill="#D4AF37" fill-opacity="0.1"/>
</g>
<defs>
<clipPath id="clip0_780_1950">
<rect width="316.9" height="316.9" fill="white" transform="translate(0.368286 0.749146)"/>
</clipPath>
</defs>
</svg>
