<svg width="317" height="318" viewBox="0 0 317 318" fill="none" xmlns="http://www.w3.org/2000/svg">
<g clip-path="url(#clip0_780_1970)">
<path opacity="0.6" d="M154.421 27.1577H110.399C98.7249 27.1577 87.5292 31.7951 79.2746 40.0497C71.02 48.3043 66.3826 59.5 66.3826 71.1738C66.3826 82.8476 71.02 94.0433 79.2746 102.298C87.5292 110.552 98.7249 115.19 110.399 115.19H154.421V27.1577Z" fill="#D4AF37" fill-opacity="0.1"/>
<path opacity="0.4" d="M154.421 115.177H110.399C98.7249 115.177 87.5292 119.814 79.2746 128.069C71.02 136.323 66.3826 147.519 66.3826 159.193C66.3826 170.867 71.02 182.062 79.2746 190.317C87.5292 198.572 98.7249 203.209 110.399 203.209H154.421V115.177Z" fill="#D4AF37" fill-opacity="0.1"/>
<path d="M242.44 159.199C242.44 170.873 237.803 182.069 229.548 190.324C221.294 198.578 210.098 203.216 198.424 203.216C186.75 203.216 175.555 198.578 167.3 190.324C159.046 182.069 154.408 170.873 154.408 159.199C154.408 147.526 159.046 136.33 167.3 128.075C175.555 119.821 186.75 115.183 198.424 115.183C210.098 115.183 221.294 119.821 229.548 128.075C237.803 136.33 242.44 147.526 242.44 159.199Z" fill="#D4AF37" fill-opacity="0.1"/>
<path opacity="0.2" d="M110.399 203.222H154.421V247.232C154.419 255.935 151.836 264.442 146.999 271.677C142.162 278.912 135.289 284.551 127.247 287.88C119.206 291.21 110.359 292.08 101.823 290.382C93.287 288.683 85.4465 284.492 79.2924 278.338C73.1384 272.184 68.9472 264.343 67.2486 255.808C65.5501 247.272 66.4205 238.424 69.7499 230.383C73.0792 222.342 78.718 215.468 85.9533 210.631C93.1886 205.795 101.696 203.225 110.399 203.222Z" fill="#D4AF37" fill-opacity="0.1"/>
<path opacity="0.8" d="M154.408 27.1577H198.418C210.091 27.1577 221.287 31.7951 229.542 40.0497C237.796 48.3043 242.434 59.5 242.434 71.1738C242.434 82.8476 237.796 94.0433 229.542 102.298C221.287 110.552 210.091 115.19 198.418 115.19H154.408V27.1577Z" fill="#D4AF37" fill-opacity="0.1"/>
</g>
<defs>
<clipPath id="clip0_780_1970">
<rect width="316.902" height="316.902" fill="white" transform="translate(0 0.333252)"/>
</clipPath>
</defs>
</svg>
