<svg width="317" height="317" viewBox="0 0 317 317" fill="none" xmlns="http://www.w3.org/2000/svg">
<g clip-path="url(#clip0_780_1942)">
<mask id="mask0_780_1942" style="mask-type:luminance" maskUnits="userSpaceOnUse" x="0" y="0" width="317" height="317">
<path d="M0 0H316.902V316.902H0V0Z" fill="white"/>
</mask>
<g mask="url(#mask0_780_1942)">
<path d="M67.0774 0H81.3644V14.1153H94.4366V0H108.724V42.7289H94.4366V28.4287H81.3644V42.7289H67.0906L67.0774 0ZM127.5 14.1681H114.93V0H154.371V14.1681H141.787V42.7289H127.5V14.1681ZM160.629 0H175.524L184.688 15.0132L193.838 0H208.732V42.7289H194.511V21.5493L184.688 36.7474H184.437L174.599 21.5625V42.7289H160.629V0ZM215.836 0H230.136V28.6136H250.207V42.7421H215.836V0Z" fill="#D4AF37" fill-opacity="0.1"/>
<path fill-rule="evenodd" clip-rule="evenodd" d="M66.6273 291.445L39.6115 62.2854H277.288L250.259 291.418L158.317 316.903L66.6273 291.445ZM121.253 166.005L118.692 137.219H226.24L228.749 109.121H87.9918L95.571 194.116H192.979L189.717 230.56L158.37 239.037H158.344L127.05 230.587L125.043 208.179H96.8122L100.747 252.308L158.317 268.285L215.98 252.308L223.005 173.558L223.692 166.018H121.253V166.005Z" fill="#D4AF37" fill-opacity="0.1"/>
</g>
</g>
<defs>
<clipPath id="clip0_780_1942">
<rect width="316.902" height="316.902" fill="white"/>
</clipPath>
</defs>
</svg>
