<svg width="318" height="318" viewBox="0 0 318 318" fill="none" xmlns="http://www.w3.org/2000/svg">
<g clip-path="url(#clip0_780_1953)">
<mask id="mask0_780_1953" style="mask-type:luminance" maskUnits="userSpaceOnUse" x="0" y="0" width="318" height="318">
<path d="M0.368286 0.749146H317.268V317.649H0.368286V0.749146Z" fill="white"/>
</mask>
<g mask="url(#mask0_780_1953)">
<path fill-rule="evenodd" clip-rule="evenodd" d="M0.368286 0.749146H317.268V317.649H0.368286V0.749146ZM242.625 266.417C227.929 266.417 219.623 258.759 213.246 248.327L189.043 262.39C197.784 279.661 215.649 292.839 243.312 292.839C271.595 292.839 292.656 278.155 292.656 251.338C292.656 226.474 278.369 215.422 253.07 204.555L245.622 201.373C232.841 195.828 227.308 192.223 227.308 183.284C227.308 176.061 232.854 170.528 241.569 170.528C250.112 170.528 255.618 174.133 260.728 183.284L283.915 168.402C274.104 151.145 260.504 144.556 241.569 144.556C214.976 144.556 197.955 161.563 197.955 183.904C197.955 208.134 212.216 219.608 233.712 228.759L241.159 231.954C254.747 237.896 262.841 241.514 262.841 251.721C262.841 260.251 254.958 266.417 242.625 266.417ZM127.221 266.219C116.987 266.219 112.723 259.221 108.048 250.902L83.8054 265.585C90.83 280.453 104.642 292.786 128.475 292.786C154.87 292.786 172.947 278.75 172.947 247.918V146.246H143.171V247.522C143.171 262.403 136.992 266.219 127.208 266.219H127.221Z" fill="#D4AF37" fill-opacity="0.1"/>
</g>
</g>
<defs>
<clipPath id="clip0_780_1953">
<rect width="316.9" height="316.9" fill="white" transform="translate(0.368286 0.749146)"/>
</clipPath>
</defs>
</svg>
