<svg width="318" height="318" viewBox="0 0 318 318" fill="none" xmlns="http://www.w3.org/2000/svg">
<g clip-path="url(#clip0_780_1968)">
<path d="M216.983 73.3852C215.464 73.3852 214.434 73.5701 213.365 73.821V73.9926H213.55C214.263 75.3658 215.477 76.3694 216.375 77.5973C217.088 79.0102 217.696 80.423 218.409 81.8227L218.594 81.6246C219.835 80.7531 220.442 79.3535 220.442 77.2276C219.914 76.607 219.835 75.9864 219.386 75.379C218.858 74.4944 217.722 74.0586 217.009 73.3588L216.983 73.3852ZM76.5563 247.601H64.3161C63.9718 228.148 62.7823 208.72 60.7509 189.371H60.6453L42.0274 247.601H32.7185L14.2327 189.371H14.1006C12.6547 208.75 11.796 228.169 11.5258 247.601H0.368286C1.09452 221.642 2.90349 197.293 5.78199 174.582H20.9668L38.5943 228.244H38.7L56.486 174.582H70.9446C74.14 201.188 76.015 225.55 76.5959 247.601H76.5563ZM129.597 193.728C124.606 220.731 118.031 240.378 109.897 252.619C103.532 262.073 96.5606 266.787 88.9946 266.787C86.9744 266.787 84.5052 266.179 81.5211 264.964V258.442C82.9735 258.666 84.6901 258.785 86.6179 258.785C90.1566 258.785 92.9955 257.795 95.161 255.854C97.7622 253.477 99.0562 250.81 99.0562 247.865C99.0562 245.818 98.0395 241.659 96.0193 235.4L82.6302 193.728H94.646L104.245 224.89C106.411 231.967 107.322 236.906 106.952 239.718C112.234 225.669 115.905 210.312 117.978 193.728H129.597ZM292.339 247.601H257.612V174.582H269.298V238.622H292.339V247.601ZM248.501 249.384L235.086 242.781C236.274 241.778 237.423 240.695 238.453 239.48C244.17 232.799 247.009 222.87 247.009 209.731C247.009 185.568 237.528 173.473 218.554 173.473C209.258 173.473 201.996 176.536 196.767 182.676C191.089 189.384 188.237 199.261 188.237 212.319C188.237 225.154 190.746 234.582 195.816 240.576C200.438 245.99 207.396 248.697 216.719 248.697C220.204 248.697 223.4 248.261 226.292 247.403L243.787 257.597L248.541 249.384H248.501ZM205.033 232.984C202.062 228.23 200.583 220.572 200.583 210.062C200.583 191.668 206.182 182.465 217.352 182.465C223.202 182.465 227.52 184.67 230.253 189.067C233.211 193.847 234.689 201.426 234.689 211.818C234.689 230.356 229.091 239.652 217.92 239.652C212.044 239.652 207.753 237.447 205.006 233.05L205.033 232.984ZM183.14 227.372C183.14 233.578 180.869 238.675 176.327 242.636C171.785 246.597 165.724 248.578 158.052 248.578C150.883 248.578 144.003 246.307 137.282 241.778L140.412 235.493C146.195 238.398 151.411 239.824 156.125 239.824C160.508 239.824 163.955 238.86 166.464 236.919C167.717 235.974 168.73 234.745 169.418 233.334C170.107 231.922 170.452 230.368 170.425 228.798C170.425 224.441 167.388 220.744 161.868 217.641C156.745 214.828 146.512 208.966 146.512 208.966C140.94 204.912 138.167 200.568 138.167 193.424C138.167 187.482 140.24 182.729 144.373 179.098C148.532 175.427 153.88 173.618 160.482 173.618C167.243 173.618 173.422 175.414 178.968 179.032L176.155 185.317C171.724 183.37 166.946 182.337 162.106 182.28C158.369 182.28 155.478 183.178 153.471 185C152.452 185.844 151.631 186.901 151.065 188.096C150.499 189.291 150.203 190.596 150.196 191.919C150.196 196.25 153.286 199.974 158.99 203.143C164.179 205.981 174.663 211.989 174.663 211.989C180.381 216.017 183.22 220.308 183.22 227.412L183.14 227.372ZM307.022 150.101C299.958 149.917 294.478 150.63 289.896 152.584C288.576 153.112 286.463 153.112 286.278 154.789C287.004 155.489 287.11 156.637 287.731 157.615C288.787 159.384 290.609 161.747 292.299 162.989C294.148 164.441 295.996 165.841 297.937 167.082C301.37 169.195 305.266 170.449 308.633 172.575C310.547 173.816 312.502 175.387 314.443 176.708C315.406 177.368 316.027 178.556 317.268 178.979V178.715C316.661 177.923 316.476 176.774 315.882 175.889C314.997 175.004 314.112 174.212 313.241 173.341C310.649 169.924 307.555 166.92 304.064 164.428C301.238 162.5 295.059 159.806 293.897 156.571L293.725 156.387C295.653 156.215 297.951 155.515 299.799 154.987C302.797 154.195 305.543 154.366 308.646 153.587C310.046 153.231 311.458 152.795 312.871 152.346V151.554C311.287 149.969 310.098 147.817 308.461 146.338C303.891 142.344 299.017 138.71 293.884 135.471C291.111 133.702 287.599 132.566 284.68 131.061C283.624 130.533 281.855 130.269 281.247 129.384C279.663 127.456 278.739 124.895 277.616 122.597C275.023 117.568 272.614 112.445 270.393 107.241C268.809 103.781 267.845 100.335 265.904 97.1659C256.793 82.1528 246.93 73.0551 231.758 64.1555C228.497 62.3069 224.588 61.5147 220.455 60.5376C218.25 60.4319 216.045 60.2735 213.853 60.1811C212.401 59.5605 211.001 57.8835 209.76 57.0781C204.742 53.9091 191.749 47.0429 188.052 56.1274C185.676 61.858 191.578 67.5094 193.624 70.4143C195.143 72.4345 197.058 74.7452 198.114 77.0164C198.734 78.548 198.906 80.1193 199.527 81.717C200.926 85.5991 202.26 89.93 204.109 93.5612C205.072 95.4098 206.129 97.3508 207.37 99.0145C208.083 99.9784 209.298 100.427 209.575 102.012C208.334 103.808 208.255 106.422 207.542 108.614C204.373 118.609 205.614 130.969 210.103 138.323C211.516 140.515 214.883 145.374 219.386 143.513C223.347 141.928 222.476 136.91 223.611 132.487C223.875 131.431 223.704 130.731 224.245 130.018V130.216C225.486 132.698 226.727 135.062 227.863 137.544C230.583 141.875 235.336 146.365 239.311 149.362C241.424 150.946 243.1 153.693 245.741 154.67V154.406H245.543C244.975 153.64 244.223 153.27 243.51 152.65C241.836 151.011 240.291 149.245 238.888 147.368C235.168 142.285 231.869 136.906 229.025 131.285C227.572 128.513 226.358 125.528 225.196 122.795C224.667 121.739 224.667 120.154 223.783 119.626C222.462 121.554 220.521 123.231 219.557 125.608C217.881 129.411 217.709 134.085 217.075 138.944C216.719 139.036 216.89 138.944 216.719 139.129C213.893 138.442 212.929 135.511 211.873 133.055C209.232 126.783 208.796 116.708 211.08 109.485C211.701 107.637 214.342 101.801 213.285 100.031C212.731 98.3543 210.988 97.3904 210.024 96.0304C208.784 94.2602 207.723 92.3716 206.855 90.3922C204.742 85.4538 203.686 79.9873 201.389 75.0489C200.332 72.7646 198.484 70.3747 196.978 68.2752C195.301 65.8985 193.453 64.2215 192.119 61.409C191.683 60.4451 191.063 58.8474 191.763 57.7911C191.948 57.0781 192.317 56.8008 193.004 56.6027C194.166 55.652 197.427 56.8932 198.576 57.4214C201.837 58.7418 204.584 59.983 207.317 61.8316C208.558 62.703 209.892 64.38 211.476 64.8157H213.325C216.151 65.4363 219.333 65.0006 221.974 65.7796C226.661 67.2849 230.887 69.4768 234.676 71.8535C246.353 79.3128 255.851 89.7261 262.207 102.038C263.263 104.072 263.725 105.933 264.689 108.046C266.538 112.404 268.822 116.801 270.697 121.013C272.546 125.172 274.328 129.41 276.982 132.857C278.303 134.705 283.611 135.669 285.988 136.633C287.744 137.425 290.477 138.152 292.062 139.116C295.098 140.964 298.056 143.077 300.908 145.11C302.361 146.114 306.758 148.319 307.022 150.101Z" fill="#D4AF37" fill-opacity="0.1"/>
</g>
<defs>
<clipPath id="clip0_780_1968">
<rect width="316.9" height="316.9" fill="white" transform="translate(0.368286 0.749146)"/>
</clipPath>
</defs>
</svg>
