<svg width="318" height="318" viewBox="0 0 318 318" fill="none" xmlns="http://www.w3.org/2000/svg">
<g clip-path="url(#clip0_780_1964)">
<path d="M158.818 317.068C154.303 317.068 150.104 315.893 146.182 313.86L106.187 290.911C100.179 287.715 103.189 286.553 104.998 285.972C113.106 283.358 114.611 282.777 123.035 278.116C123.933 277.535 125.148 277.825 126.046 278.406L156.719 296.14C157.907 296.721 159.426 296.721 160.324 296.14L280.31 229.01C281.498 228.429 282.106 227.267 282.106 225.814V91.8447C282.106 90.3922 281.511 89.2303 280.31 88.6493L160.324 21.823C159.122 21.242 157.617 21.242 156.719 21.823L36.7326 88.6493C35.531 89.2303 34.9236 90.6827 34.9236 91.8447V225.814C34.9236 226.976 35.531 228.429 36.7326 229.01L69.5054 247.324C87.2518 256.038 98.3697 245.871 98.3697 235.704V103.478C98.3697 101.735 99.8749 99.9917 101.988 99.9917H117.318C119.127 99.9917 120.922 101.444 120.922 103.478V235.691C120.922 258.653 107.996 272.016 85.4428 272.016C78.5238 272.016 73.1101 272.016 57.7801 264.753L26.2089 247.324C22.4046 245.232 19.2276 242.162 17.0062 238.432C14.7848 234.702 13.5994 230.446 13.5725 226.105V92.1352C13.5725 83.4204 18.3788 75.2867 26.2089 70.9293L146.195 3.7861C150.101 1.78284 154.428 0.738037 158.818 0.738037C163.208 0.738037 167.535 1.78284 171.442 3.7861L291.441 70.9161C299.258 75.2735 304.064 83.4072 304.064 92.122V226.091C304.064 234.806 299.258 242.94 291.441 247.311L171.442 314.427C167.457 316.154 163.161 317.044 158.818 317.042V317.068ZM195.803 224.943C143.185 224.943 132.357 201.703 132.357 181.937C132.357 180.194 133.862 178.451 135.962 178.451H151.596C153.405 178.451 154.897 179.613 154.897 181.356C157.313 196.752 164.232 204.305 196.107 204.305C221.366 204.305 232.194 198.785 232.194 185.713C232.194 178.16 229.183 172.641 189.795 168.865C157.009 165.656 136.569 158.697 136.569 133.411C136.569 109.868 157.009 95.9116 191.301 95.9116C229.791 95.9116 248.739 108.706 251.142 136.607C251.115 137.551 250.797 138.465 250.231 139.221C249.637 139.802 248.739 140.383 247.828 140.383H232.194C231.434 140.365 230.702 140.1 230.106 139.628C229.511 139.156 229.085 138.504 228.893 137.769C225.275 121.792 215.953 116.55 191.301 116.55C163.625 116.55 160.324 125.845 160.324 132.817C160.324 141.255 164.232 143.869 201.521 148.517C238.505 153.165 255.948 159.846 255.948 184.828C255.645 210.418 234.003 224.943 195.803 224.943Z" fill="#D4AF37" fill-opacity="0.1"/>
</g>
<defs>
<clipPath id="clip0_780_1964">
<rect width="316.9" height="316.9" fill="white" transform="translate(0.368286 0.749146)"/>
</clipPath>
</defs>
</svg>
