<svg width="318" height="318" viewBox="0 0 318 318" fill="none" xmlns="http://www.w3.org/2000/svg">
<g clip-path="url(#clip0_780_1960)">
<path d="M158.818 73.3721C69.9674 73.3721 0.368286 111.07 0.368286 159.199C0.368286 207.328 69.9674 245.026 158.818 245.026C247.669 245.026 317.268 207.328 317.268 159.199C317.268 111.07 247.669 73.3721 158.818 73.3721ZM142.366 99.7804H159.663L154.17 126.189H169.619C179.417 126.189 185.992 127.562 189.742 130.982C193.4 134.362 194.509 139.908 193.043 147.461L186.177 179.005H168.589L174.914 149.837C175.68 145.837 175.376 143.05 174.029 141.585C172.696 140.119 169.751 139.393 165.341 139.393H151.49L143.132 179.005H125.808L142.366 99.7804ZM66.3891 126.189H101.591C118.374 126.189 128.541 137.439 124.567 154.221C119.945 173.724 107.586 179.005 84.8221 179.005H73.9419L70.4956 198.812H53.0001L66.3891 126.189ZM205.033 126.189H240.235C257.018 126.189 267.185 137.439 263.21 154.221C258.589 173.724 246.217 179.005 223.466 179.005H212.586L209.139 198.812H191.644L205.033 126.189ZM81.3758 139.393L76.3979 165.801H87.6874C97.4585 165.801 106.543 164.692 108.061 150.115C108.629 144.477 106.279 139.393 94.9893 139.393H81.3758ZM220.02 139.393L215.042 165.801H226.331C236.102 165.801 245.187 164.692 246.705 150.115C247.273 144.477 244.936 139.393 233.633 139.393H220.02Z" fill="#D4AF37" fill-opacity="0.1"/>
</g>
<defs>
<clipPath id="clip0_780_1960">
<rect width="316.9" height="316.9" fill="white" transform="translate(0.368286 0.749146)"/>
</clipPath>
</defs>
</svg>
