<svg width="59" height="59" viewBox="0 0 59 59" fill="none" xmlns="http://www.w3.org/2000/svg">
<g clip-path="url(#clip0_776_1660)">
<path fill-rule="evenodd" clip-rule="evenodd" d="M12.099 4.85413C8.77391 4.85413 6.31527 7.7642 6.42692 10.917C6.53128 13.9508 6.39536 17.8754 5.40754 21.0768C4.41244 24.2854 2.73775 26.3192 0 26.5814V29.5303C2.73775 29.79 4.41486 31.8239 5.40511 35.0349C6.39536 38.2362 6.53128 42.1608 6.42449 45.1923C6.31527 48.3475 8.77391 51.2575 12.099 51.2575H46.1558C49.4809 51.2575 51.9396 48.3475 51.8279 45.1923C51.7236 42.1608 51.8595 38.2362 52.8473 35.0349C53.84 31.8239 55.5122 29.7924 58.25 29.5303V26.5814C55.5122 26.3192 53.84 24.2854 52.8473 21.0768C51.8595 17.873 51.7236 13.9484 51.8279 10.917C51.9396 7.76177 49.4785 4.85413 46.1558 4.85413H12.099ZM39.4886 33.4185C39.4886 37.7629 36.2485 40.3963 30.8725 40.3963H21.72C21.458 40.3963 21.2067 40.2923 21.0215 40.107C20.8362 39.9218 20.7321 39.6705 20.7321 39.4085V16.7007C20.7328 16.4392 20.8371 16.1885 21.0223 16.0038C21.2075 15.8191 21.4584 15.7153 21.72 15.7153H30.8215C35.3044 15.7153 38.2484 18.1424 38.2484 21.8728C38.2484 24.4892 36.2679 26.8314 33.7462 27.244V27.3799C37.1805 27.7561 39.4886 30.1346 39.4886 33.4185ZM29.8774 18.8438H24.6592V26.2173H29.0546C32.4525 26.2173 34.3262 24.8484 34.3262 22.4019C34.3262 20.1108 32.7147 18.8438 29.8774 18.8438ZM24.6592 29.1419V37.2654H30.0716C33.6078 37.2654 35.484 35.8456 35.484 33.1782C35.484 30.5084 33.5569 29.1419 29.8434 29.1419H24.6592Z" fill="white"/>
</g>
<defs>
<clipPath id="clip0_776_1660">
<rect width="58.25" height="58.25" fill="white"/>
</clipPath>
</defs>
</svg>
