<svg width="59" height="59" viewBox="0 0 59 59" fill="none" xmlns="http://www.w3.org/2000/svg">
<g clip-path="url(#clip0_776_1487)">
<path d="M18.208 0H24.465V2.6164H20.8244V5.23279H24.465V7.84919H18.208V0ZM25.715 0H31.9744V2.2766H28.3338V2.73047H31.9744V7.96326H25.715V5.57501H29.3556V5.11872H25.715V0ZM33.2268 0H39.4814V2.2766H35.8408V2.73047H39.4814V7.96326H33.2268V5.57501H36.8674V5.11872H33.2268V0Z" fill="white"/>
<path fill-rule="evenodd" clip-rule="evenodd" d="M29.1032 58.25L12.2495 53.5706L7.28125 11.4485H50.9688L46.0029 53.5657L29.1032 58.25ZM17.1037 30.5157L17.5672 35.6805H35.4718L34.8723 42.3793L29.1104 43.9375H29.1056L23.3534 42.3841L22.9845 38.2654H17.7978L18.5211 46.3767L29.1032 49.3135L39.7022 46.3767L40.9934 31.9016L41.1196 30.5157L42.0516 20.0574H16.1741L16.6449 25.2247H36.3917L35.9208 30.5157H17.1037Z" fill="white"/>
</g>
<defs>
<clipPath id="clip0_776_1487">
<rect width="58.25" height="58.25" fill="white"/>
</clipPath>
</defs>
</svg>
