<svg width="59" height="59" viewBox="0 0 59 59" fill="none" xmlns="http://www.w3.org/2000/svg">
<path opacity="0.6" d="M28.3167 4.85425H20.2248C18.0791 4.85425 16.0212 5.70666 14.5039 7.22395C12.9866 8.74125 12.1342 10.7991 12.1342 12.9449C12.1342 15.0907 12.9866 17.1486 14.5039 18.6659C16.0212 20.1832 18.0791 21.0356 20.2248 21.0356H28.3167V4.85425Z" fill="white"/>
<path opacity="0.4" d="M28.3167 21.0332H20.2248C18.0791 21.0332 16.0212 21.8856 14.5039 23.4029C12.9866 24.9202 12.1342 26.9781 12.1342 29.1239C12.1342 31.2697 12.9866 33.3276 14.5039 34.8449C16.0212 36.3622 18.0791 37.2146 20.2248 37.2146H28.3167V21.0332Z" fill="white"/>
<path d="M44.4957 29.1251C44.4957 31.2709 43.6433 33.3288 42.126 34.8461C40.6087 36.3634 38.5508 37.2158 36.405 37.2158C34.2592 37.2158 32.2013 36.3634 30.684 34.8461C29.1667 33.3288 28.3143 31.2709 28.3143 29.1251C28.3143 26.9793 29.1667 24.9214 30.684 23.4041C32.2013 21.8868 34.2592 21.0344 36.405 21.0344C38.5508 21.0344 40.6087 21.8868 42.126 23.4041C43.6433 24.9214 44.4957 26.9793 44.4957 29.1251Z" fill="white"/>
<path opacity="0.2" d="M20.2249 37.217H28.3168V45.3065C28.3163 46.9062 27.8415 48.4699 26.9524 49.7999C26.0634 51.1298 24.7999 52.1663 23.3219 52.7782C21.8438 53.3902 20.2175 53.5502 18.6485 53.238C17.0795 52.9258 15.6384 52.1554 14.5072 51.0242C13.376 49.893 12.6056 48.4518 12.2934 46.8828C11.9812 45.3139 12.1412 43.6875 12.7531 42.2095C13.3651 40.7314 14.4016 39.468 15.7315 38.5789C17.0614 37.6899 18.6251 37.2175 20.2249 37.217Z" fill="white"/>
<path opacity="0.8" d="M28.3143 4.85425H36.4038C38.5496 4.85425 40.6075 5.70666 42.1248 7.22395C43.6421 8.74125 44.4945 10.7991 44.4945 12.9449C44.4945 15.0907 43.6421 17.1486 42.1248 18.6659C40.6075 20.1832 38.5496 21.0356 36.4038 21.0356H28.3143V4.85425Z" fill="white"/>
</svg>
