<svg width="60" height="59" viewBox="0 0 60 59" fill="none" xmlns="http://www.w3.org/2000/svg">
<g clip-path="url(#clip0_776_240)">
<mask id="mask0_776_240" style="mask-type:luminance" maskUnits="userSpaceOnUse" x="0" y="0" width="60" height="59">
<path d="M0.955688 0.0794296H59.2097V58.3334H0.955688V0.0794296Z" fill="white"/>
</mask>
<g mask="url(#mask0_776_240)">
<path d="M13.2866 0.0795975H15.9129V2.67433H18.3159V0.0795975H20.9422V7.93417H18.3159V5.30546H15.9129V7.93417H13.289L13.2866 0.0795975ZM24.3937 2.68403H22.083V0.0795975H29.3332V2.68403H27.02V7.93417H24.3937V2.68403ZM30.4837 0.0795975H33.2216L34.9061 2.83938L36.5882 0.0795975H39.3261V7.93417H36.712V4.04087L34.9061 6.83463H34.86L33.0517 4.04329V7.93417H30.4837V0.0795975ZM40.632 0.0795975H43.2607V5.33945H46.9501V7.9366H40.632V0.0795975Z" fill="white"/>
<path fill-rule="evenodd" clip-rule="evenodd" d="M13.2038 53.6539L8.23767 11.529H51.9282L46.9596 53.6491L30.0586 58.3336L13.2038 53.6539ZM23.2454 30.595L22.7745 25.3036H42.5444L43.0056 20.1385H17.1311L18.5244 35.7627H36.4302L35.8306 42.4619L30.0683 44.0202H30.0635L24.3109 42.4667L23.942 38.3477H18.7525L19.4758 46.4595L30.0586 49.3965L40.6584 46.4595L41.9497 31.9834L42.0759 30.5975H23.2454V30.595Z" fill="white"/>
</g>
</g>
<defs>
<clipPath id="clip0_776_240">
<rect width="58.254" height="58.254" fill="white" transform="translate(0.955688 0.0794296)"/>
</clipPath>
</defs>
</svg>
