<svg width="59" height="59" viewBox="0 0 59 59" fill="none" xmlns="http://www.w3.org/2000/svg">
<g clip-path="url(#clip0_776_1533)">
<mask id="mask0_776_1533" style="mask-type:luminance" maskUnits="userSpaceOnUse" x="0" y="0" width="59" height="59">
<path d="M0 0H58.25V58.25H0V0Z" fill="white"/>
</mask>
<g mask="url(#mask0_776_1533)">
<path fill-rule="evenodd" clip-rule="evenodd" d="M0 0H58.25V58.25H0V0ZM44.5297 48.8329C41.8284 48.8329 40.3017 47.4252 39.1294 45.5078L34.6806 48.0927C36.2873 51.2673 39.5712 53.6895 44.6559 53.6895C49.8547 53.6895 53.7259 50.9906 53.7259 46.0612C53.7259 41.491 51.0998 39.4595 46.4495 37.462L45.0806 36.8771C42.7312 35.8577 41.7143 35.1951 41.7143 33.552C41.7143 32.2244 42.7337 31.2074 44.3355 31.2074C45.9059 31.2074 46.9179 31.87 47.8572 33.552L52.1192 30.8167C50.3159 27.6445 47.816 26.4334 44.3355 26.4334C39.4474 26.4334 36.3189 29.5594 36.3189 33.6661C36.3189 38.1198 38.9401 40.2289 42.8914 41.9109L44.2603 42.4982C46.7578 43.5904 48.2456 44.2554 48.2456 46.1316C48.2456 47.6995 46.7966 48.8329 44.5297 48.8329ZM23.317 48.7965C21.436 48.7965 20.6521 47.5102 19.7929 45.9811L15.3367 48.68C16.6279 51.4129 19.1667 53.6798 23.5476 53.6798C28.3993 53.6798 31.722 51.0998 31.722 45.4326V26.744H26.2489V45.3598C26.2489 48.0951 25.113 48.7965 23.3146 48.7965H23.317Z" fill="white"/>
</g>
</g>
<defs>
<clipPath id="clip0_776_1533">
<rect width="58.25" height="58.25" fill="white"/>
</clipPath>
</defs>
</svg>
