<svg width="59" height="59" viewBox="0 0 59 59" fill="none" xmlns="http://www.w3.org/2000/svg">
<g clip-path="url(#clip0_776_1664)">
<path d="M39.8163 13.3514C39.5372 13.3514 39.3479 13.3854 39.1513 13.4315V13.4631H39.1853C39.3163 13.7155 39.5396 13.9 39.7047 14.1257C39.8357 14.3854 39.9474 14.6451 40.0784 14.9024L40.1124 14.8659C40.3406 14.7058 40.4522 14.4485 40.4522 14.0577C40.3551 13.9437 40.3406 13.8296 40.258 13.7179C40.1609 13.5553 39.9522 13.4752 39.8212 13.3466L39.8163 13.3514ZM14.0043 45.3744H11.7544C11.6911 41.7988 11.4724 38.2276 11.0991 34.6709H11.0796L7.65745 45.3744H5.94635L2.54844 34.6709H2.52417C2.25838 38.2332 2.10055 41.8026 2.05089 45.3744H0C0.13349 40.6027 0.466 36.1272 0.995104 31.9526H3.78625L7.02641 41.8163H7.04582L10.3151 31.9526H12.9728C13.5601 36.8432 13.9048 41.3212 14.0116 45.3744H14.0043ZM23.7539 35.4719C22.8364 40.4353 21.6277 44.0468 20.1327 46.2967C18.9628 48.0345 17.6813 48.9009 16.2906 48.9009C15.9192 48.9009 15.4654 48.7893 14.9169 48.566V47.367C15.1838 47.4083 15.4994 47.4301 15.8537 47.4301C16.5042 47.4301 17.026 47.2481 17.424 46.8913C17.9022 46.4544 18.14 45.9642 18.14 45.4229C18.14 45.0467 17.9531 44.2822 17.5818 43.1318L15.1207 35.4719H17.3294L19.0939 41.1998C19.4919 42.5007 19.6594 43.4084 19.5914 43.9254C20.5622 41.343 21.237 38.5203 21.618 35.4719H23.7539ZM53.6677 45.3744H47.2844V31.9526H49.4324V43.724H53.6677V45.3744ZM45.6097 45.702L43.1438 44.4885C43.3623 44.304 43.5734 44.105 43.7627 43.8817C44.8137 42.6536 45.3355 40.8285 45.3355 38.4135C45.3355 33.9719 43.5928 31.7487 40.1051 31.7487C38.3965 31.7487 37.0616 32.3118 36.1004 33.4404C35.0568 34.6734 34.5325 36.4888 34.5325 38.8892C34.5325 41.2483 34.9937 42.9813 35.9257 44.0832C36.7752 45.0783 38.0542 45.5758 39.7678 45.5758C40.4085 45.5758 40.9959 45.4957 41.5274 45.338L44.7433 47.2117L45.617 45.702H45.6097ZM37.6198 42.6876C37.0737 41.8138 36.8019 40.4061 36.8019 38.4742C36.8019 35.0933 37.8309 33.4016 39.8843 33.4016C40.9595 33.4016 41.7531 33.8069 42.2555 34.6151C42.7992 35.4937 43.071 36.8869 43.071 38.797C43.071 42.2046 42.0419 43.9133 39.9886 43.9133C38.9086 43.9133 38.1198 43.508 37.6149 42.6997L37.6198 42.6876ZM33.5957 41.6561C33.5957 42.7968 33.1782 43.7337 32.3433 44.4618C31.5084 45.1899 30.3944 45.554 28.9842 45.554C27.6663 45.554 26.4018 45.1365 25.1664 44.304L25.7416 43.1487C26.8047 43.6827 27.7634 43.9448 28.6299 43.9448C29.4357 43.9448 30.0691 43.7677 30.5303 43.4109C30.7608 43.2371 30.9469 43.0113 31.0734 42.7519C31.2 42.4925 31.2634 42.2068 31.2584 41.9182C31.2584 41.1173 30.7002 40.4377 29.6857 39.8673C28.7439 39.3504 26.863 38.2727 26.863 38.2727C25.8387 37.5276 25.329 36.7291 25.329 35.4161C25.329 34.3239 25.7101 33.4501 26.4698 32.7827C27.2343 32.1079 28.2173 31.7754 29.4308 31.7754C30.6735 31.7754 31.8094 32.1055 32.8287 32.7705L32.3118 33.9258C31.4972 33.568 30.6189 33.3782 29.7293 33.3676C29.0425 33.3676 28.5109 33.5326 28.142 33.8676C27.9548 34.0227 27.8039 34.2169 27.6999 34.4367C27.5959 34.6564 27.5414 34.8963 27.5401 35.1394C27.5401 35.9355 28.1081 36.6199 29.1565 37.2024C30.1104 37.7242 32.0375 38.8285 32.0375 38.8285C33.0884 39.5688 33.6102 40.3576 33.6102 41.6634L33.5957 41.6561ZM56.3666 27.4528C55.0681 27.4188 54.0609 27.5499 53.2187 27.9091C52.9759 28.0062 52.5876 28.0062 52.5536 28.3144C52.6871 28.4431 52.7065 28.6542 52.8206 28.8338C53.0148 29.159 53.3497 29.5935 53.6604 29.8216C54.0002 30.0886 54.34 30.3459 54.6967 30.574C55.3278 30.9624 56.0438 31.1929 56.6627 31.5837C57.0146 31.8118 57.3738 32.1007 57.7306 32.3434C57.9078 32.4647 58.0219 32.6832 58.25 32.7608V32.7123C58.1384 32.5667 58.1044 32.3555 57.9952 32.1929C57.8325 32.0303 57.6699 31.8847 57.5097 31.7245C57.0332 31.0965 56.4645 30.5442 55.8229 30.0862C55.3035 29.7318 54.1676 29.2367 53.9541 28.6421L53.9225 28.6081C54.2769 28.5765 54.6992 28.4479 55.039 28.3508C55.5899 28.2052 56.0947 28.2367 56.6651 28.0935C56.9224 28.028 57.1821 27.9479 57.4418 27.8654V27.7198C57.1505 27.4285 56.9321 27.0329 56.6311 26.7611C55.7911 26.0268 54.8952 25.359 53.9516 24.7636C53.4419 24.4384 52.7963 24.2296 52.26 23.9529C52.0658 23.8559 51.7406 23.8073 51.6289 23.6447C51.3377 23.2904 51.1678 22.8195 50.9615 22.3972C50.4849 21.4727 50.0421 20.5312 49.6339 19.5745C49.3426 18.9386 49.1654 18.3051 48.8086 17.7226C47.134 14.963 45.3209 13.2908 42.5322 11.6549C41.9327 11.3151 41.2143 11.1695 40.4546 10.9899C40.0493 10.9705 39.644 10.9414 39.2411 10.9244C38.9741 10.8103 38.7168 10.502 38.4887 10.354C37.5664 9.7715 35.1781 8.50941 34.4986 10.1792C34.0617 11.2326 35.1466 12.2714 35.5228 12.8054C35.8019 13.1767 36.1538 13.6014 36.348 14.0189C36.4621 14.3004 36.4936 14.5893 36.6077 14.8829C36.865 15.5965 37.1101 16.3926 37.4499 17.06C37.6271 17.3998 37.8212 17.7566 38.0494 18.0624C38.1804 18.2396 38.4037 18.3221 38.4547 18.6134C38.2266 18.9434 38.212 19.424 38.0809 19.8269C37.4984 21.6642 37.7266 23.936 38.5518 25.2878C38.8115 25.6907 39.4304 26.5839 40.258 26.2417C40.9862 25.9504 40.826 25.0281 41.0347 24.2151C41.0832 24.0209 41.0517 23.8923 41.1512 23.7612V23.7976C41.3793 24.2539 41.6075 24.6884 41.8162 25.1446C42.3162 25.9407 43.1899 26.7659 43.9205 27.3169C44.3088 27.6081 44.6171 28.113 45.1025 28.2926V28.244H45.0661C44.9617 28.1033 44.8234 28.0353 44.6923 27.9212C44.3846 27.62 44.1006 27.2954 43.8428 26.9504C43.159 26.016 42.5526 25.0273 42.0298 23.9942C41.7628 23.4845 41.5395 22.936 41.3259 22.4336C41.2289 22.2394 41.2289 21.9482 41.0662 21.8511C40.8235 22.2054 40.4668 22.5137 40.2896 22.9506C39.9813 23.6496 39.9498 24.5087 39.8333 25.4019C39.7678 25.4189 39.7993 25.4019 39.7678 25.4359C39.2484 25.3097 39.0712 24.7709 38.877 24.3194C38.3916 23.1666 38.3115 21.3147 38.7314 19.9871C38.8455 19.6473 39.3309 18.5745 39.1367 18.2493C39.0348 17.9411 38.7144 17.7639 38.5372 17.5139C38.3093 17.1885 38.1142 16.8414 37.9547 16.4775C37.5664 15.5698 37.3722 14.565 36.9499 13.6573C36.7557 13.2374 36.416 12.7981 36.1393 12.4122C35.831 11.9753 35.4912 11.667 35.2461 11.1501C35.166 10.9729 35.0519 10.6792 35.1806 10.4851C35.2146 10.354 35.2825 10.303 35.4087 10.2666C35.6223 10.0919 36.2218 10.32 36.4329 10.4171C37.0324 10.6598 37.5373 10.888 38.0397 11.2277C38.2678 11.3879 38.513 11.6962 38.8042 11.7763H39.144C39.6634 11.8903 40.2483 11.8102 40.7337 11.9534C41.5954 12.2301 42.372 12.633 43.0686 13.0699C45.215 14.441 46.9607 16.3551 48.1291 18.6182C48.3232 18.992 48.4082 19.3342 48.5854 19.7225C48.9251 20.5235 49.345 21.3317 49.6897 22.1059C50.0295 22.8705 50.3571 23.6496 50.845 24.283C51.0877 24.6228 52.0634 24.8 52.5002 24.9772C52.823 25.1228 53.3254 25.2563 53.6167 25.4335C54.1749 25.7733 54.7186 26.1616 55.2428 26.5354C55.5098 26.7198 56.318 27.1251 56.3666 27.4528Z" fill="white"/>
</g>
<defs>
<clipPath id="clip0_776_1664">
<rect width="58.25" height="58.25" fill="white"/>
</clipPath>
</defs>
</svg>
