<svg width="59" height="59" viewBox="0 0 59 59" fill="none" xmlns="http://www.w3.org/2000/svg">
<g clip-path="url(#clip0_776_1656)">
<path d="M29.125 58.1432C28.295 58.1432 27.5232 57.9272 26.8023 57.5534L19.4507 53.3351C18.3464 52.7478 18.8997 52.5342 19.2322 52.4274C20.7225 51.9468 20.9992 51.84 22.5476 50.9833C22.7127 50.8765 22.936 50.9299 23.101 51.0367L28.7391 54.2962C28.9576 54.403 29.2367 54.403 29.4017 54.2962L51.4566 41.957C51.6751 41.8502 51.7867 41.6366 51.7867 41.3696V16.7444C51.7867 16.4774 51.6775 16.2639 51.4566 16.1571L29.4017 3.87359C29.1809 3.7668 28.9042 3.7668 28.7391 3.87359L6.68423 16.1571C6.46336 16.2639 6.35172 16.5308 6.35172 16.7444V41.3696C6.35172 41.5832 6.46336 41.8502 6.68423 41.957L12.7082 45.3233C15.9702 46.9252 18.0139 45.0563 18.0139 43.1875V18.8827C18.0139 18.5623 18.2905 18.2419 18.6789 18.2419H21.4967C21.8292 18.2419 22.1593 18.5089 22.1593 18.8827V43.1851C22.1593 47.4058 19.7832 49.862 15.6377 49.862C14.3659 49.862 13.3708 49.862 10.553 48.5271L4.74984 45.3233C4.05056 44.9388 3.4666 44.3746 3.05828 43.6889C2.64996 43.0032 2.43207 42.221 2.42712 41.423V16.7978C2.42712 15.1959 3.31058 13.7009 4.74984 12.8999L26.8047 0.558195C27.5228 0.189973 28.3181 -0.0020752 29.125 -0.0020752C29.932 -0.0020752 30.7273 0.189973 31.4453 0.558195L53.5027 12.8975C54.9395 13.6984 55.823 15.1935 55.823 16.7954V41.4206C55.823 43.0224 54.9395 44.5175 53.5027 45.3209L31.4453 57.6578C30.713 57.9752 29.9232 58.1388 29.125 58.1383V58.1432ZM35.9233 41.2094C26.2514 41.2094 24.2612 36.9377 24.2612 33.3044C24.2612 32.984 24.5379 32.6637 24.9238 32.6637H27.7974C28.1299 32.6637 28.4042 32.8772 28.4042 33.1976C28.8484 36.0276 30.1201 37.4159 35.9791 37.4159C40.6221 37.4159 42.6123 36.4014 42.6123 33.9985C42.6123 32.6103 42.059 31.5957 34.819 30.9016C28.7925 30.3118 25.0354 29.0327 25.0354 24.3849C25.0354 20.0574 28.7925 17.492 35.0957 17.492C42.1706 17.492 45.6535 19.8438 46.0952 24.9722C46.0903 25.1458 46.0318 25.3137 45.9277 25.4528C45.8185 25.5596 45.6535 25.6664 45.486 25.6664H42.6123C42.4727 25.663 42.338 25.6143 42.2286 25.5276C42.1191 25.4409 42.0408 25.3209 42.0056 25.1858C41.3405 22.249 39.627 21.2855 35.0957 21.2855C30.0085 21.2855 29.4017 22.9942 29.4017 24.2757C29.4017 25.8266 30.1201 26.3071 36.9742 27.1615C43.7725 28.0158 46.9787 29.2439 46.9787 33.8359C46.9228 38.5396 42.9449 41.2094 35.9233 41.2094Z" fill="white"/>
</g>
<defs>
<clipPath id="clip0_776_1656">
<rect width="58.25" height="58.25" fill="white"/>
</clipPath>
</defs>
</svg>
