<svg width="59" height="59" viewBox="0 0 59 59" fill="none" xmlns="http://www.w3.org/2000/svg">
<g clip-path="url(#clip0_776_1547)">
<path d="M29.125 13.349C12.7932 13.349 0 20.2783 0 29.125C0 37.9718 12.7932 44.9011 29.125 44.9011C45.4568 44.9011 58.25 37.9718 58.25 29.125C58.25 20.2783 45.4568 13.349 29.125 13.349ZM26.1009 18.2032H29.2803L28.2707 23.0573H31.1104C32.9112 23.0573 34.1199 23.3097 34.8092 23.9384C35.4815 24.5597 35.6854 25.5791 35.416 26.9674L34.1539 32.7657H30.921L32.0836 27.4042C32.2244 26.6688 32.1686 26.1567 31.921 25.8873C31.6759 25.6179 31.1346 25.4844 30.324 25.4844H27.778L26.2416 32.7657H23.0573L26.1009 18.2032ZM12.1354 23.0573H18.606C21.6908 23.0573 23.5597 25.1252 22.8291 28.21C21.9797 31.7948 19.7079 32.7657 15.5236 32.7657H13.5237L12.8902 36.4063H9.67435L12.1354 23.0573ZM37.6198 23.0573H44.0904C47.1752 23.0573 49.0441 25.1252 48.3135 28.21C47.464 31.7948 45.1899 32.7657 41.008 32.7657H39.0081L38.3746 36.4063H35.1587L37.6198 23.0573ZM14.8902 25.4844L13.9751 30.3386H16.0503C17.8463 30.3386 19.5162 30.1347 19.7953 27.4552C19.8997 26.4188 19.4676 25.4844 17.3925 25.4844H14.8902ZM40.3745 25.4844L39.4595 30.3386H41.5347C43.3307 30.3386 45.0006 30.1347 45.2797 27.4552C45.384 26.4188 44.9544 25.4844 42.8769 25.4844H40.3745Z" fill="white"/>
</g>
<defs>
<clipPath id="clip0_776_1547">
<rect width="58.25" height="58.25" fill="white"/>
</clipPath>
</defs>
</svg>
